Coordinates
version=1
nRows=9
nColumns=24
inDegrees=yes

Units are S.I. units (second, meters, Newtons, ...)
Angles are in degrees.

endheader
time	pelvis_tilt	pelvis_list	pelvis_rotation	pelvis_tx	pelvis_ty	pelvis_tz	hip_flexion_r	hip_adduction_r	hip_rotation_r	knee_angle_r	ankle_angle_r	subtalar_angle_r	mtp_angle_r	hip_flexion_l	hip_adduction_l	hip_rotation_l	knee_angle_l	ankle_angle_l	subtalar_angle_l	mtp_angle_l	lumbar_extension	lumbar_bending	lumbar_rotation
      3.58500000	      6.17531053	      0.36306145	     -1.60084461	      0.71676791	      1.01355274	     -0.01793075	    -13.99088856	     -4.20884477	     -4.09244915	    -34.34635863	      0.67913084	      9.57903418	     38.75999131	      8.93073855	      1.85743945	     -9.58909802	     -5.80447176	     -6.79489826	      5.29457435	     10.58072252	    -20.53536202	      0.22987386	      4.90349708
      3.59000000	      5.94282932	      0.51040773	     -1.65764023	      0.72149503	      1.01404263	     -0.01896415	    -12.78848726	     -4.56845132	     -4.13084802	    -36.18148670	     -0.02741656	      9.30597759	     37.88266270	      8.88679557	      2.06593370	     -9.69637235	     -5.81471054	     -6.51019071	      5.46966988	      9.94339013	    -20.33830504	      0.07327698	      4.89955336
      3.59500000	      5.80971808	      0.69235366	     -1.78317614	      0.72618908	      1.01462200	     -0.01992630	    -11.66364015	     -4.98582761	     -4.09888897	    -38.03204733	     -0.52153280	      9.15157751	     35.38027327	      8.70551800	      2.31504375	     -9.91000635	     -5.77423615	     -6.12740465	      5.62409651	      8.26924727	    -20.25225154	     -0.14071412	      4.94806436
      3.60000000	      5.58494110	      0.82822208	     -1.86154393	      0.73081199	      1.01503969	     -0.02087433	    -10.43526393	     -5.31742567	     -4.06621779	    -39.83793552	     -1.16654237	      8.66717341	     34.67718617	      8.64156301	      2.50646319	    -10.10623881	     -5.75197043	     -5.86751592	      5.90292056	      8.01963451	    -20.06813350	     -0.29409314	      4.94188769
      3.60500000	      5.39372702	      0.98328375	     -1.98794779	      0.73535864	      1.01547482	     -0.02179196	     -9.20878808	     -5.67639515	     -3.96814085	    -41.66626895	     -1.55263210	      8.28802882	     31.90945394	      8.52118918	      2.72725970	    -10.31891623	     -5.68137047	     -5.56372497	      6.02432851	      6.72480387	    -19.92243613	     -0.47774675	      4.98196138
      3.61000000	      5.16764238	      1.10872649	     -2.07844042	      0.73986045	      1.01581368	     -0.02267471	     -7.95428023	     -5.97600939	     -3.88477881	    -43.42551172	     -2.06492391	      7.64888958	     31.22059410	      8.46488560	      2.90378226	    -10.57065145	     -5.65719046	     -5.30965357	      6.34372942	      6.52845663	    -19.73977652	     -0.62498101	      4.97872012
      3.61500000	      5.01452516	      1.25278154	     -2.21822697	      0.74435861	      1.01623119	     -0.02349666	     -6.76969736	     -6.29355563	     -3.73288514	    -45.16471113	     -2.25275702	      7.12513337	     28.01053588	      8.28968107	      3.10976819	    -10.83560066	     -5.55811363	     -4.96958962	      6.56024075	      5.26805273	    -19.63294544	     -0.80669415	      5.00609041
      3.62000000	      4.84596310	      1.37079916	     -2.34280869	      0.74877724	      1.01660277	     -0.02430122	     -5.57173905	     -6.56197371	     -3.58151303	    -46.82308912	     -2.68091919	      6.30437824	     27.66005777	      8.14685752	      3.28643339	    -11.09073985	     -5.46992046	     -4.78735444	      6.73378072	      5.19752862	    -19.51599031	     -0.95678540	      5.02363037
      3.62500000	      4.63738666	      1.50025035	     -2.41647048	      0.75318350	      1.01686898	     -0.02516911	     -4.33972198	     -6.83658962	     -3.48732928	    -48.46885846	     -2.69212145	      5.69816701	     24.59867577	      8.05216606	      3.48172203	    -11.26531793	     -5.38943698	     -4.46135225	      6.95681801	      4.03628854	    -19.34924444	     -1.10099164	      4.96596022
